<svg width="96" height="96" xmlns="http://www.w3.org/2000/svg" xmlns:xlink="http://www.w3.org/1999/xlink" overflow="hidden"><defs><clipPath id="clip0"><rect x="0" y="0" width="96" height="96"/></clipPath></defs><g clip-path="url(#clip0)"><path d="M38.183 57.075C33.946 52.462 29.383 55.616 25.896 56.416 25.7884 55.3401 25.5513 54.2811 25.19 53.262 27.0991 53.1574 28.9127 52.3932 30.321 51.1 32.769 48.652 32.533 44.509 32.533 44.509 32.533 44.509 28.344 44.274 25.943 46.722 24.9202 47.8244 24.2342 49.1964 23.966 50.676 22.6309 48.4904 20.8305 46.6258 18.693 45.215L17.234 47.615C17.281 47.662 22.365 50.815 23.071 56.371 19.635 55.524 15.021 52.464 10.878 57.03 6.312 62.068 10.219 87.865 24.578 80.757 38.889 87.91 42.749 62.113 38.183 57.075Z"/><path d="M53.515 48.036 62 39.551 66.877 44.427 67.93 31 67.93 28 63.73 28 63.93 26 72.758 16.914C73.5254 16.1195 73.5034 14.8534 72.7088 14.086 71.9338 13.3374 70.705 13.3374 69.93 14.086L59.93 24.343 59.578 28 31.93 28 31.93 31 32.676 40.509 32.758 40.509 36.289 40.74 36.527 44.275C36.6102 46.5352 36.1779 48.7846 35.263 50.853 37.5392 51.377 39.5918 52.6065 41.128 54.366 45.194 58.851 44.575 69.727 41.486 76.695 40.6537 78.6376 39.5047 80.4286 38.086 81.995L63.93 81.995 65.643 60.159Z"/><path d="M68.732 57.597 59.172 48.036 62 45.208 68.732 51.939 84.172 36.5 87 39.328 68.732 57.597Z"/></g></svg>