<svg width="96" height="96" xmlns="http://www.w3.org/2000/svg" xmlns:xlink="http://www.w3.org/1999/xlink" overflow="hidden"><defs><clipPath id="clip0"><rect x="0" y="0" width="96" height="96"/></clipPath></defs><g clip-path="url(#clip0)"><path d="M82 54.911 82 21 18 21 18 16.9C17.995 12.539 14.461 9.00496 10.1 9L10 9C9.44771 9 9 9.44771 9 10 9 10.5523 9.44771 11 10 11L10.1 11C13.3571 11.0033 15.9967 13.6429 16 16.9L16 67C16.0046 70.7018 18.8907 73.7601 22.586 73.979 19.5312 75.8646 18.5834 79.8695 20.4689 82.9243 22.3545 85.9791 26.3594 86.9269 29.4142 85.0414 32.469 83.1558 33.4168 79.1509 31.5313 76.0961 31.007 75.2467 30.2942 74.5295 29.448 74L66.548 74C63.5055 75.9054 62.5838 79.9164 64.4891 82.9589 66.3945 86.0013 70.4055 86.9231 73.448 85.0177 76.4905 83.1123 77.4122 79.1013 75.5069 76.0589 74.9851 75.2257 74.2811 74.5218 73.448 74L81 74C81.5523 74 82 73.5523 82 73 82 72.4477 81.5523 72 81 72L23 72C20.2399 71.9967 18.0033 69.7601 18 67L18 60.911ZM70 84C67.5147 84 65.5 81.9853 65.5 79.5 65.5 77.0147 67.5147 75 70 75 72.4853 75 74.5 77.0147 74.5 79.5 74.4972 81.9841 72.4841 83.9972 70 84ZM26 84C23.5147 84 21.5 81.9853 21.5 79.5 21.5 77.0147 23.5147 75 26 75 28.4853 75 30.5 77.0147 30.5 79.5 30.4972 81.9841 28.4841 83.9972 26 84ZM18 35 32 35 32 45 18 45ZM64 45 50 45 50 35 64 35ZM66 35 80 35 80 45 66 45ZM50 47 64 47 64 54.589 50 55.9ZM48 56.089 34 57.4 34 47 48 47ZM50 33 50 23 64 23 64 33ZM48 33 34 33 34 23 48 23ZM48 35 48 45 34 45 34 35ZM18 47 32 47 32 57.589 18 58.9ZM66 54.4 66 47 80 47 80 53.089ZM80 33 66 33 66 23 80 23ZM32 23 32 33 18 33 18 23Z" fill="#FF6000"/></g></svg>