<svg id="Layer_1" data-name="Layer 1" xmlns="http://www.w3.org/2000/svg" viewBox="0 0 122.88 122.88"><defs><style>.cls-1{fill:#f60;fill-rule:evenodd;}.cls-2{fill:#fff;}</style></defs><path class="cls-1" d="M61.44,0A61.44,61.44,0,1,1,0,61.44H0A61.44,61.44,0,0,1,61.44,0Z"/><path class="cls-2" d="M34.255,39.233h54.37a3.537,3.537,0,0,1,3.525,3.524V80.123a3.5,3.5,0,0,1-.608,1.973,1.4,1.4,0,0,1-.33.5,1.286,1.286,0,0,1-.33.232,3.525,3.525,0,0,1-2.251.821H34.255a3.5,3.5,0,0,1-2.489-1.036,3.538,3.538,0,0,1-1.036-2.494V42.757a3.537,3.537,0,0,1,3.525-3.524Zm-.822,39.4,19.053-19.1L33.433,44V78.635ZM54.587,61.243l-19.649,19.7h52.83L69,61.249l-6.187,5.273h0a1.348,1.348,0,0,1-1.725.023l-6.5-5.3ZM71.053,59.5,89.447,78.792V43.828L71.053,59.5ZM35.164,41.935,61.915,63.744l25.6-21.809Z"/></svg>