<?xml version="1.0" encoding="utf-8"?>
<!-- Generator: Adobe Illustrator 25.1.0, SVG Export Plug-In . SVG Version: 6.00 Build 0)  -->
<svg version="1.1" id="Camada_1" xmlns="http://www.w3.org/2000/svg" xmlns:xlink="http://www.w3.org/1999/xlink" x="0px" y="0px"
	 viewBox="0 0 1195.5 597.8" style="enable-background:new 0 0 1195.5 597.8;" xml:space="preserve">
<style type="text/css">
	.st0{fill:none;}
	.st1{clip-path:url(#SVGID_2_);}
	.st2{fill:#FFFFFF;stroke:#ED7D31;stroke-width:1.3333;}
</style>
<rect x="0" class="st0" width="1195.5" height="597.8"/>
<g>
	<g>
		<defs>
			<rect id="SVGID_1_" x="344.3" y="45.4" width="507" height="507"/>
		</defs>
		<clipPath id="SVGID_2_">
			<use xlink:href="#SVGID_1_"  style="overflow:visible;"/>
		</clipPath>
		<g class="st1">
			<path class="st2" d="M708.7,499.5V129.9h-26.4V98.2h-169v31.7h-26.4v369.6h-37V510h295.8v-10.6H708.7z M523.8,108.8h147.9v21.1
				H523.8V108.8z M497.4,140.5h200.7v359h-89.8v-58h-21.1v58h-89.8V140.5z"/>
			<path class="st2" d="M534.4,283.1h21.1v31.7h-21.1V283.1z"/>
			<path class="st2" d="M534.4,230.2h21.1v31.7h-21.1V230.2z"/>
			<path class="st2" d="M534.4,335.9h21.1v31.7h-21.1V335.9z"/>
			<path class="st2" d="M534.4,388.7h21.1v31.7h-21.1V388.7z"/>
			<path class="st2" d="M587.2,283.1h21.1v31.7h-21.1V283.1z"/>
			<path class="st2" d="M587.2,388.7h21.1v31.7h-21.1V388.7z"/>
			<path class="st2" d="M640,441.5h21.1v31.7H640V441.5z"/>
			<path class="st2" d="M640,177.4h21.1v31.7H640V177.4z"/>
			<path class="st2" d="M587.2,335.9h21.1v31.7h-21.1V335.9z"/>
			<path class="st2" d="M587.2,230.2h21.1v31.7h-21.1V230.2z"/>
			<path class="st2" d="M587.2,177.4h21.1v31.7h-21.1V177.4z"/>
			<path class="st2" d="M534.4,177.4h21.1v31.7h-21.1V177.4z"/>
			<path class="st2" d="M534.4,441.5h21.1v31.7h-21.1V441.5z"/>
			<path class="st2" d="M640,283.1h21.1v31.7H640V283.1z"/>
			<path class="st2" d="M640,335.9h21.1v31.7H640V335.9z"/>
			<path class="st2" d="M640,388.7h21.1v31.7H640V388.7z"/>
			<path class="st2" d="M640,230.2h21.1v31.7H640V230.2z"/>
		</g>
	</g>
</g>
</svg>
