<svg width="96" height="96" xmlns="http://www.w3.org/2000/svg" xmlns:xlink="http://www.w3.org/1999/xlink" overflow="hidden"><defs><clipPath id="clip0"><rect x="0" y="0" width="96" height="96"/></clipPath></defs><g clip-path="url(#clip0)"><path d="M74.5 38.411C75.2091 37.1778 75.7792 35.8698 76.2 34.511L80.6 32.311 80.6 27.311 76.2 25.111C75.8322 23.7491 75.2947 22.4388 74.6 21.211L76.2 16.511 72.6 12.911 67.9 14.511C66.6728 13.8124 65.3625 13.2712 64 12.9L61.8 8.5 56.8 8.5 54.6 12.9C53.238 13.2675 51.9277 13.805 50.7 14.5L46 12.9 42.4 16.5 44 21.2C43.3053 22.4278 42.7678 23.7381 42.4 25.1L38 27.3 38 32.3 42.4 34.5C42.7679 35.8619 43.3055 37.1721 44 38.4L42.4 43.1 45.9 46.6 50.6 45C51.8278 45.6947 53.1381 46.2322 54.5 46.6L56.7 51 61.7 51 63.9 46.6C65.2619 46.2323 66.5722 45.6948 67.8 45L72.5 46.6 76.1 43.1ZM72.606 39.055 73.8 42.56 71.985 44.325 68.445 43.119 67.581 42.825 66.792 43.285C65.7091 43.897 64.5528 44.3691 63.351 44.69L62.505 44.932 62.111 45.719 60.464 49.019 57.939 49.019 56.292 45.719 55.898 44.932 55.052 44.69C53.8499 44.3691 52.6933 43.897 51.61 43.285L50.822 42.825 49.958 43.119 46.436 44.319 44.696 42.579 45.896 39.056 46.19 38.192 45.73 37.404C45.1194 36.3203 44.6489 35.1633 44.33 33.961L44.088 33.115 43.302 32.722 40 31.073 40 28.544 43.3 26.9 44.086 26.506 44.328 25.66C44.6471 24.458 45.1175 23.3015 45.728 22.218L46.188 21.429 45.894 20.566 44.694 17.042 46.534 15.202 50.056 16.402 50.92 16.702 51.708 16.241C52.7915 15.6307 53.9481 15.1603 55.15 14.841L56 14.585 56.394 13.798 58.041 10.498 60.569 10.498 62.216 13.798 62.61 14.585 63.455 14.827C64.657 15.1461 65.8135 15.6165 66.897 16.227L67.686 16.688 68.55 16.388 72.071 15.188 73.911 17.028 72.711 20.552 72.417 21.415 72.877 22.204C73.4888 23.2874 73.9609 24.444 74.282 25.646L74.523 26.492 75.31 26.886 78.61 28.534 78.61 31.063 75.31 32.711 74.545 33.094 74.293 33.912C73.917 35.1269 73.4083 36.2966 72.776 37.4L72.316 38.188Z" fill="#FF6000"/><path d="M15.4 63.618 15.4 68.618 19.8 70.818C20.1678 72.1799 20.7053 73.4902 21.4 74.718L19.9 79.418 23.4 82.918 28.1 81.418C29.3277 82.1129 30.638 82.6504 32 83.018L34.2 87.418 39.2 87.418 41.4 83.018C42.7619 82.6503 44.0722 82.1127 45.3 81.418L50 83.018 53.5 79.418 52 74.818C52.6947 73.5902 53.2322 72.2799 53.6 70.918L58 68.718 58 63.718 53.6 61.518C53.2322 60.1561 52.6947 58.8458 52 57.618L53.6 52.918 50 49.318 45.3 50.918C44.064 50.2404 42.7558 49.7037 41.4 49.318L39.2 44.918 34.2 44.918 32 49.318C30.638 49.6856 29.3277 50.2231 28.1 50.918L23.4 49.318 19.9 52.818 21.4 57.518C20.7225 58.7541 20.1858 60.0622 19.8 61.418ZM21.46 62.818 21.712 62C22.0561 60.7917 22.5309 59.6244 23.128 58.519L23.576 57.75 23.305 56.903 22.176 53.362 23.934 51.603 27.456 52.803 28.32 53.098 29.108 52.638C30.1911 52.0256 31.3477 51.5534 32.55 51.233L33.4 51 33.794 50.213 35.441 46.913 37.969 46.913 39.616 50.213 39.999 50.979 40.817 51.23C42.0249 51.5749 43.1917 52.0501 44.297 52.647L45.086 53.107 45.95 52.812 49.471 51.612 51.311 53.453 50.111 56.976 49.817 57.839 50.277 58.628C50.889 59.7117 51.3611 60.8685 51.682 62.071L51.923 62.916 52.71 63.31 56 64.954 56 67.483 52.7 69.131 51.913 69.525 51.672 70.37C51.3511 71.5724 50.879 72.7293 50.267 73.813L49.815 74.588 50.093 75.441 51.219 78.894 49.45 80.722 45.95 79.529 45.086 79.235 44.297 79.695C43.2131 80.3078 42.0554 80.78 40.852 81.1L40.006 81.342 39.613 82.129 37.966 85.429 35.438 85.429 33.791 82.129 33.397 81.342 32.551 81.1C31.3487 80.7796 30.1921 80.3074 29.109 79.695L28.341 79.247 27.493 79.517 23.954 80.647 22.177 78.87 23.306 75.329 23.577 74.482 23.129 73.713C22.5167 72.6298 22.0446 71.4732 21.724 70.271L21.482 69.425 20.696 69.031 17.396 67.383 17.396 64.854 20.696 63.206Z" fill="#FF6000"/><path d="M59.3 22.306C55.1579 22.306 51.8 25.6639 51.8 29.806 51.8 33.9481 55.1579 37.306 59.3 37.306 63.4421 37.306 66.8 33.9481 66.8 29.806 66.769 25.6768 63.4292 22.337 59.3 22.306ZM59.3 35.306C56.2643 35.3016 53.8044 32.8417 53.8 29.806 53.8404 26.7853 56.2793 24.3464 59.3 24.306 62.3357 24.3104 64.7956 26.7703 64.8 29.806 64.7623 32.8285 62.3224 35.2701 59.3 35.31Z" fill="#FF6000"/><path d="M36.7 73.721C40.8421 73.721 44.2 70.3631 44.2 66.221 44.2 62.0789 40.8421 58.721 36.7 58.721 32.5579 58.721 29.2 62.0789 29.2 66.221 29.195 70.3582 32.5448 73.716 36.682 73.721 36.688 73.721 36.694 73.721 36.7 73.721ZM36.7 60.716C39.7376 60.716 42.2 63.1784 42.2 66.216 42.2 69.2536 39.7376 71.716 36.7 71.716 33.6624 71.716 31.2 69.2536 31.2 66.216 31.2044 63.1803 33.6643 60.7204 36.7 60.716Z" fill="#FF6000"/></g></svg>