<svg id="Camada_1" data-name="Camada 1" xmlns="http://www.w3.org/2000/svg" xmlns:xlink="http://www.w3.org/1999/xlink" viewBox="0 0 1195.5 597.8"><defs><style>.cls-1{fill:none;}.cls-2{clip-path:url(#clip-path);}.cls-3{fill:#f60;stroke:#ed7d31;stroke-width:1.333px;}</style><clipPath id="clip-path"><rect class="cls-1" x="344.25" y="45.4" width="507" height="507"/></clipPath></defs><rect class="cls-1" width="1195.5" height="597.8"/><g class="cls-2"><path class="cls-3" d="M750.905,304.18a47.594,47.594,0,1,0-45.487-33.8l-53.867,22.953a66.045,66.045,0,0,0-53.8-36.415V198.245a47.531,47.531,0,1,0-10.562,0v58.674a66.042,66.042,0,0,0-53.774,36.415l-53.895-22.953a47.748,47.748,0,1,0-4.183,9.7l54.075,23.047a65.864,65.864,0,0,0,11.618,60.866l-43.438,43.438a48.154,48.154,0,1,0,8.022,6.913l42.7-42.7a65.611,65.611,0,0,0,88.262,0l42.7,42.7a47.005,47.005,0,1,0,8.023-6.913l-43.438-43.438a65.875,65.875,0,0,0,11.661-60.866L709.6,280.093A47.521,47.521,0,0,0,750.905,304.18ZM413.038,287.044a21.025,21.025,0,0,1,41.986,0A36.8,36.8,0,0,1,413.038,287.044Zm13.072-38.316a7.922,7.922,0,1,1,7.921,7.922A7.921,7.921,0,0,1,426.11,248.728Zm37.908,29.459a31.834,31.834,0,0,0-15.569-18.036,18.485,18.485,0,1,0-28.835,0,31.839,31.839,0,0,0-15.57,18.036,36.969,36.969,0,1,1,59.974,0ZM584.547,143.1a7.922,7.922,0,1,1,7.922,7.922A7.922,7.922,0,0,1,584.547,143.1Zm7.922,18.484a21.089,21.089,0,0,1,20.993,19.832,36.8,36.8,0,0,1-41.986,0A21.089,21.089,0,0,1,592.469,161.587ZM555.5,151.025a36.969,36.969,0,1,1,66.955,21.537,31.83,31.83,0,0,0-15.569-18.036,18.289,18.289,0,0,0,4.066-11.423,18.484,18.484,0,1,0-32.9,11.423,31.834,31.834,0,0,0-15.569,18.036A36.735,36.735,0,0,1,555.5,151.025ZM450.007,477.169a21.025,21.025,0,0,1,41.986,0A36.807,36.807,0,0,1,450.007,477.169Zm13.071-38.317A7.922,7.922,0,1,1,471,446.775,7.924,7.924,0,0,1,463.078,438.852Zm37.909,29.46a31.849,31.849,0,0,0-15.569-18.037,18.486,18.486,0,1,0-28.836,0,31.849,31.849,0,0,0-15.569,18.037,36.969,36.969,0,1,1,59.974,0Zm59.546-100.391a32.078,32.078,0,0,1,63.87,0A55.1,55.1,0,0,1,560.533,367.921Zm17.249-54.333a14.687,14.687,0,1,1,14.687,14.692A14.688,14.688,0,0,1,577.782,313.588ZM692.946,477.169a21.023,21.023,0,0,1,41.983,0A36.8,36.8,0,0,1,692.946,477.169Zm13.069-38.317a7.923,7.923,0,1,1,7.923,7.923A7.923,7.923,0,0,1,706.015,438.852Zm44.89,7.923a36.719,36.719,0,0,1-6.98,21.537,31.852,31.852,0,0,0-15.569-18.037,18.486,18.486,0,1,0-28.837,0,31.852,31.852,0,0,0-15.569,18.037,36.969,36.969,0,1,1,66.955-21.537Zm-117.322-87.03a42.781,42.781,0,0,0-23.888-27.8,25.25,25.25,0,1,0-35.686-1.232q.594.637,1.232,1.232a42.78,42.78,0,0,0-23.887,27.8,55.453,55.453,0,1,1,82.229,0Zm96.33-72.7a21.025,21.025,0,0,1,41.986,0A36.8,36.8,0,0,1,729.913,287.044Zm13.072-38.316a7.921,7.921,0,1,1,7.92,7.922A7.921,7.921,0,0,1,742.985,248.728Zm7.92-29.047a36.9,36.9,0,0,1,29.987,58.506,31.832,31.832,0,0,0-15.568-18.036,18.484,18.484,0,1,0-28.835,0,31.83,31.83,0,0,0-15.569,18.036,36.905,36.905,0,0,1,29.985-58.506Z"/></g></svg>