<svg id="Camada_1" data-name="Camada 1" xmlns="http://www.w3.org/2000/svg" xmlns:xlink="http://www.w3.org/1999/xlink" viewBox="0 0 420 297"><defs><style>.cls-1{fill:#e6e6e6;}.cls-2{fill:#ccc;}.cls-3{fill:#fff;}.cls-4{opacity:0.6;}.cls-5{fill:#ff6000;}.cls-6{fill:#666;}.cls-7{fill:#4d4d4d;}.cls-8{fill:#b63533;}.cls-9{fill:#c55d5c;}.cls-10{fill:#d38685;}.cls-11,.cls-12{stroke:#191c24;}.cls-11,.cls-12,.cls-13{stroke-miterlimit:10;}.cls-12,.cls-13{fill:#191c24;}.cls-13{stroke:#000;}</style></defs><polygon class="cls-1" points="238.79 276.97 181.21 276.97 165 297 255 297 238.79 276.97"/><path class="cls-2" d="M601.21,413v-.46c0-.28-.17-.5-.36-.5H393.21v.66L400.65,423H594Z" transform="translate(-287.21 -126)"/><path class="cls-3" d="M292.21,347V136a5,5,0,0,1,5-5h400a5,5,0,0,1,5,5V347Z" transform="translate(-287.21 -126)"/><path class="cls-1" d="M697.21,136V342h-400V136h400m0-10h-400a10,10,0,0,0-10,10V352h420V136a10,10,0,0,0-10-10Z" transform="translate(-287.21 -126)"/><g class="cls-4"><path d="M697.21,403.25h-400a10,10,0,0,1-10-10v-43h420v43A10,10,0,0,1,697.21,403.25Z" transform="translate(-287.21 -126)"/></g><path class="cls-1" d="M697.21,402.25h-400a10,10,0,0,1-10-10v-43h420v43A10,10,0,0,1,697.21,402.25Z" transform="translate(-287.21 -126)"/><circle class="cls-3" cx="210" cy="246.75" r="16.5"/><image width="1266" height="1266" transform="translate(193.5 230.25) scale(0.03)" xlink:href="../../../../Users/LeonardoTeixeiraTimo/OneDrive%20-%20LinqCode/Documentos/LinqCode/Identidade/Cupido/Logotipo/Digital/PNG/linqcode-logorgb1.png"/><rect class="cls-5" x="20.5" y="21" width="116" height="23"/><rect class="cls-6" x="150.5" y="21" width="249" height="23"/><rect class="cls-7" x="20.5" y="116.67" width="116" height="50"/><rect class="cls-2" x="20.5" y="53" width="379" height="56"/><rect class="cls-7" x="150.75" y="116.67" width="116" height="50"/><rect class="cls-7" x="283.5" y="116.67" width="116" height="50"/><rect class="cls-8" x="20.5" y="174" width="116" height="11"/><rect class="cls-8" x="150.5" y="174" width="116" height="11"/><rect class="cls-8" x="283.5" y="174" width="116" height="11"/><rect class="cls-9" x="20.5" y="186" width="116" height="11"/><rect class="cls-9" x="150.5" y="186" width="116" height="11"/><rect class="cls-9" x="283.5" y="186" width="116" height="11"/><rect class="cls-10" x="20.5" y="198" width="116" height="12"/><rect class="cls-10" x="150.5" y="198" width="116" height="11"/><rect class="cls-10" x="283.5" y="198" width="116" height="11"/><path class="cls-11" d="M497.21,443.77" transform="translate(-287.21 -126)"/><path class="cls-11" d="M497.21,404.77" transform="translate(-287.21 -126)"/><path d="M497.21,442" transform="translate(-287.21 -126)"/><path d="M497.21,405" transform="translate(-287.21 -126)"/><path class="cls-12" d="M497.21,444" transform="translate(-287.21 -126)"/><path class="cls-13" d="M497.21,444" transform="translate(-287.21 -126)"/><path class="cls-12" d="M497.21,444" transform="translate(-287.21 -126)"/><path class="cls-12" d="M497.21,444" transform="translate(-287.21 -126)"/></svg>