<?xml version="1.0" encoding="utf-8"?>
<!-- Generator: Adobe Illustrator 25.1.0, SVG Export Plug-In . SVG Version: 6.00 Build 0)  -->
<svg version="1.1"
	 id="Camada_1" image-rendering="optimizeQuality" text-rendering="geometricPrecision" shape-rendering="geometricPrecision"
	 xmlns="http://www.w3.org/2000/svg" xmlns:xlink="http://www.w3.org/1999/xlink" x="0px" y="0px" viewBox="0 0 3333 3333"
	 style="enable-background:new 0 0 3333 3333;" xml:space="preserve">
<style type="text/css">
	.st0{fill-rule:evenodd;clip-rule:evenodd;fill:#FFFFFF;}
	.st1{fill-rule:evenodd;clip-rule:evenodd;fill:#FF6600;}
</style>
<rect x="662.2" y="651.2" class="st0" width="2217.8" height="2019.7"/>
<path class="st1" d="M1667,0c920,0,1667,746,1667,1667c0,920-746,1667-1667,1667C747,3334,0,2588,0,1667C0,747,746,0,1667,0z
	 M1277,752h780c293,0,532,237,532,525v778c0,289-239,525-532,525h-780c-293,0-532-236-532-525v-778C745,988,985,752,1277,752z
	 M1662,1173c285,0,516,231,516,516s-231,516-516,516s-516-231-516-516S1377,1173,1662,1173z M1662,1347c188,0,341,153,341,341
	s-153,341-341,341c-189,0-341-153-341-341S1474,1347,1662,1347z M2161,1101c46,0,84,37,84,84c0,46-37,84-84,84c-46,0-84-37-84-84
	C2077,1139,2114,1101,2161,1101z M1341,901h652c245,0,445,199,445,443v656c0,244-200,443-445,443h-652c-245,0-445-199-445-443v-656
	C896,1100,1096,901,1341,901z"/>
</svg>
