<svg xmlns="http://www.w3.org/2000/svg" width="160" height="32.475" viewBox="0 0 160 32.475">
  <g id="StarSoft_Logo_branca" transform="translate(-32.79 -33.61)">
    <path id="Caminho_312" data-name="Caminho 312" d="M54.507,58a7.654,7.654,0,0,1-3.8,6.91,15.968,15.968,0,0,1-8.59,2.074,31.658,31.658,0,0,1-8-1.186V62.736a23.743,23.743,0,0,0,7.8,1.381,7.983,7.983,0,0,0,3.948-.738q1.78-1.039,1.775-3.9,0-2.52-3.849-4.786-7.1-4.2-7.154-4.243a9,9,0,0,1-3.849-7.3,6.628,6.628,0,0,1,3.111-5.8,14.213,14.213,0,0,1,8.1-2.1,47.91,47.91,0,0,1,7.3.788V38.7a38.516,38.516,0,0,0-7.254-.888q-4.395,0-4.392,4,0,2.466,3.849,4.641,6.813,3.851,7.154,4.1A9.022,9.022,0,0,1,54.507,58Zm15.006,8.635V64.166a15.474,15.474,0,0,1-1.68.149c-1.644,0-2.717-.38-3.206-1.137a7.36,7.36,0,0,1-.543-3.5V46.991h3.7V44.623h-3.7V39.144l-6.81,1.236v4.243H53.719v2.368h3.555V61.105a4.943,4.943,0,0,0,2.961,4.886,15.1,15.1,0,0,0,6.217.987,20.013,20.013,0,0,0,3.061-.344ZM90.2,66.485h-6.86V65a5.1,5.1,0,0,1-1.381,1.481,6.364,6.364,0,0,1-2.862.494,8.851,8.851,0,0,1-7.4-3.6,12.309,12.309,0,0,1-2.518-7.847,11.26,11.26,0,0,1,2.739-7.675,8.92,8.92,0,0,1,7.032-3.133,4.544,4.544,0,0,1,4.392,2.468V45.212l6.86-1.236V66.485Zm-6.865-9.228v-1.73q0-8.341-2.912-8.341-4.442,0-4.442,8.341,0,8.782,4.442,8.784,2.914.007,2.912-7.055Zm26.9-7.9a2.33,2.33,0,0,0-1.725-.838q-3.158,0-4.392,1.58a6.438,6.438,0,0,0-.987,4V66.489h-6.86v-15.4a5.4,5.4,0,0,0-.715-3.283,3.45,3.45,0,0,0-2.739-.865.532.532,0,0,1-.543-.593q0-.5.543-.543l10.315-1.825v3.7q1.481-3.6,5.823-3.6a4.413,4.413,0,0,1,1.281.249V49.36Z" transform="translate(0 -0.897)" fill="#fff"/>
    <path id="Caminho_313" data-name="Caminho 313" d="M229.037,57.1a7.654,7.654,0,0,1-3.8,6.91,15.968,15.968,0,0,1-8.59,2.074,31.658,31.658,0,0,1-8-1.186V61.838a23.861,23.861,0,0,0,7.8,1.381,7.984,7.984,0,0,0,3.949-.738q1.78-1.039,1.775-3.9,0-2.52-3.849-4.786-7.1-4.2-7.154-4.243a9,9,0,0,1-3.849-7.3,6.628,6.628,0,0,1,3.111-5.8,14.213,14.213,0,0,1,8.1-2.1,47.909,47.909,0,0,1,7.3.788v2.667a38.516,38.516,0,0,0-7.254-.888q-4.394,0-4.392,4,0,2.466,3.849,4.641,6.813,3.851,7.154,4.1a9.022,9.022,0,0,1,3.849,7.444Zm24.434-2.124q0,5.332-3.084,8.218a13.027,13.027,0,0,1-16.265.077q-3.158-2.961-3.161-8.291,0-5.576,3.161-8.685a12.548,12.548,0,0,1,16.192,0q3.152,3.1,3.156,8.68Zm-6.86,0a26.71,26.71,0,0,0-.543-6.466q-.937-3.308-3.849-3.306t-3.849,3.306a26.685,26.685,0,0,0-.543,6.466,20.037,20.037,0,0,0,.543,5.628,4.04,4.04,0,0,0,7.7,0,20.037,20.037,0,0,0,.543-5.628ZM274.5,38.985h-5.085q-.1-3.851-2.961-3.849-2.323,0-2.318,5.085v3.5h5.579v2.368h-5.579V65.587h-6.86V46.094h-2.961V43.726h2.961V41.258a6.987,6.987,0,0,1,2.368-5.18,9.134,9.134,0,0,1,6.516-2.468q7.546-.007,8.341,5.375Zm13.793,26.752V63.269a15.474,15.474,0,0,1-1.68.149q-2.466,0-3.206-1.137a7.36,7.36,0,0,1-.543-3.5V46.094h3.7V43.726h-3.7V38.247l-6.81,1.236v4.243H272.5v2.368h3.555V60.208a4.943,4.943,0,0,0,2.961,4.886,15.1,15.1,0,0,0,6.217.987A19.956,19.956,0,0,0,288.291,65.737Z" transform="translate(-95.501 0)" fill="#fff"/>
  </g>
</svg>
