<?xml version="1.0" encoding="utf-8"?>
<!-- Generator: Adobe Illustrator 25.1.0, SVG Export Plug-In . SVG Version: 6.00 Build 0)  -->
<svg version="1.1" id="Camada_1" xmlns="http://www.w3.org/2000/svg" xmlns:xlink="http://www.w3.org/1999/xlink" x="0px" y="0px"
	 viewBox="0 0 1195.5 597.8" style="enable-background:new 0 0 1195.5 597.8;" xml:space="preserve">
<style type="text/css">
	.st0{fill:none;}
	.st1{clip-path:url(#SVGID_2_);}
	.st2{fill:#FFFFFF;stroke:#B63533;stroke-width:1.3333;}
</style>
<rect class="st0" width="1195.5" height="597.8"/>
<g>
	<defs>
		<rect id="SVGID_1_" x="344.2" y="45.4" width="507" height="507"/>
	</defs>
	<clipPath id="SVGID_2_">
		<use xlink:href="#SVGID_1_"  style="overflow:visible;"/>
	</clipPath>
	<g class="st1">
		<path class="st2" d="M766.8,131c0,20.4-16.6,37-37,37s-37-16.6-37-37c0-20.4,16.6-37,37-37S766.8,110.5,766.8,131z"/>
		<path class="st2" d="M502.7,131c0,20.4-16.6,37-37,37c-20.4,0-37-16.6-37-37c0-20.4,16.6-37,37-37C486.1,94,502.7,110.5,502.7,131
			z"/>
		<path class="st2" d="M634.7,131c0,20.4-16.6,37-37,37s-37-16.6-37-37c0-20.4,16.6-37,37-37S634.7,110.5,634.7,131z"/>
		<path class="st2" d="M691.8,303.1L668,215.5c-1.1-3.2-2.6-6.3-4.8-8.5c-10-10.6-22.7-18.5-36.4-23.2c-9-3.2-18.5-4.8-28.5-4.8
			c-10,0-19.5,1.6-28.5,4.8c-14.3,4.8-26.4,12.7-36.4,23.2c-2.1,2.6-3.7,5.3-4.8,8.5l-23.8,87.7c-2.1,8.4,2.1,18,11.1,20.1
			c1.6,0.5,2.6,0.5,4.2,0.5c6.9,0,13.2-4.8,15.3-11.6l21.1-77.1v268.8h31.7v-151h21.1v150.5h31.7V235l21.1,77.1
			c2.1,6.9,8.4,11.6,15.3,11.6c1.6,0,2.6,0,4.2-0.5C689.1,321.1,693.9,311.6,691.8,303.1z"/>
		<path class="st2" d="M493.7,300.5l23.8-87.7c1.1-4.8,3.7-9,6.3-12.7c-8.4-7.4-19-13.2-30.1-16.9c-9-3.2-18.5-4.8-28.5-4.8
			c-10,0-19.5,1.6-28.5,4.8c-14.3,4.8-26.4,12.7-36.4,23.2c-2.1,2.6-3.7,5.3-4.8,8.4l-23.8,88.2c-2.1,8.4,2.1,18,11.1,20.1
			c1.6,0.5,2.6,0.5,4.2,0.5c6.9,0,13.2-4.8,15.3-11.6l21.1-77.1v268.8h31.7v-151h21.1v150.5H508V332.2
			C496.9,326.9,490.5,313.7,493.7,300.5z"/>
		<path class="st2" d="M823.8,303.1l-24.3-87.7c-1.1-3.2-2.6-6.3-4.8-8.5c-10-10.6-22.7-18.5-36.4-23.2c-9-3.2-18.5-4.8-28.5-4.8
			c-10,0-19.5,1.6-28.5,4.8c-11.1,3.7-21.1,9.5-30.1,16.9c3.2,3.7,5.3,7.9,6.3,12.1l23.8,87.7c3.7,13.2-3.2,26.4-14.3,31.7v171.6
			h31.7v-151h21.1v150.5h31.7V235l21.1,77.1c2.1,6.9,8.4,11.6,15.3,11.6c1.6,0,2.6,0,4.2-0.5C821.1,321.1,825.9,311.6,823.8,303.1z"
			/>
	</g>
</g>
</svg>
