<?xml version="1.0" encoding="utf-8"?>
<!-- Generator: Adobe Illustrator 25.1.0, SVG Export Plug-In . SVG Version: 6.00 Build 0)  -->
<svg version="1.1" id="Camada_1" xmlns="http://www.w3.org/2000/svg" xmlns:xlink="http://www.w3.org/1999/xlink" x="0px" y="0px"
	 viewBox="0 0 1195.5 597.8" style="enable-background:new 0 0 1195.5 597.8;" xml:space="preserve">
<style type="text/css">
	.st0{fill:none;}
	.st1{clip-path:url(#SVGID_2_);}
	.st2{fill:#FF6600;}
	.st3{clip-path:url(#SVGID_4_);}
	.st4{clip-path:url(#SVGID_6_);}
	.st5{clip-path:url(#SVGID_8_);}
	.st6{clip-path:url(#SVGID_10_);}
	.st7{clip-path:url(#SVGID_12_);}
	.st8{clip-path:url(#SVGID_14_);}
	.st9{clip-path:url(#SVGID_16_);}
	.st10{clip-path:url(#SVGID_18_);}
</style>
<rect class="st0" width="1195.5" height="597.8"/>
<g>
	<defs>
		<rect id="SVGID_1_" x="353.4" y="393.2" width="125" height="125"/>
	</defs>
	<clipPath id="SVGID_2_">
		<use xlink:href="#SVGID_1_"  style="overflow:visible;"/>
	</clipPath>
	<g class="st1">
		<path class="st2" d="M403.1,467.5c-5.5-6-11.5-1.9-16-0.9c-0.1-1.4-0.4-2.8-0.9-4.1c2.5-0.1,4.8-1.1,6.7-2.8
			c3.2-3.2,2.9-8.6,2.9-8.6s-5.5-0.3-8.6,2.9c-1.3,1.4-2.2,3.2-2.6,5.1c-1.7-2.8-4.1-5.3-6.9-7.1l-1.9,3.1c0.1,0.1,6.7,4.2,7.6,11.4
			c-4.5-1.1-10.5-5.1-15.9,0.9c-5.9,6.6-0.9,40.2,17.8,30.9C404,507.6,409,474,403.1,467.5z"/>
		<path class="st2" d="M423.1,455.7l11-11l6.4,6.3l1.4-17.5v-3.9h-5.5l0.3-2.6l11.5-11.8c1-1,1-2.7,0-3.7s-2.7-1-3.7,0l-13,13.4
			l-0.5,4.8h-36v3.9l1,12.4h0.1l4.6,0.3l0.3,4.6c0.1,2.9-0.5,5.9-1.6,8.6c3,0.7,5.6,2.3,7.6,4.6c5.3,5.8,4.5,20,0.5,29.1
			c-1.1,2.5-2.6,4.9-4.4,6.9h33.7l2.2-28.4L423.1,455.7z"/>
		<path class="st2" d="M442.9,468.2l-12.4-12.5l3.7-3.7l8.8,8.8l20.1-20.1l3.7,3.7L442.9,468.2z"/>
	</g>
</g>
<g>
	<defs>
		<rect id="SVGID_3_" x="539.1" y="81.3" width="125" height="125"/>
	</defs>
	<clipPath id="SVGID_4_">
		<use xlink:href="#SVGID_3_"  style="overflow:visible;"/>
	</clipPath>
	<g class="st3">
		<path class="st2" d="M642,178.9v-2.6h-5.2V132h5.2v-2.6h3.9v-7.8H642l-40.4-24.7l-40.4,24.7h-3.9v7.8h3.9v2.6h5.2v44.3h-5.2v2.6
			l-9.1,6.5v5.2h99v-5.2L642,178.9z M582.1,176.3h-7.8V132h7.8V176.3z M597.7,176.3h-7.8V132h7.8L597.7,176.3z M600.3,119
			c-2.9,0-5.2-2.3-5.2-5.2c0-2.9,2.3-5.2,5.2-5.2c2.9,0,5.2,2.3,5.2,5.2c0,0,0,0,0,0C605.5,116.7,603.2,119,600.3,119L600.3,119z
			 M613.3,176.3h-7.8V132h7.8V176.3z M629,176.3h-7.8V132h7.8V176.3z"/>
	</g>
</g>
<g>
	<defs>
		<rect id="SVGID_5_" x="716.9" y="393.2" width="125.2" height="125"/>
	</defs>
	<clipPath id="SVGID_6_">
		<use xlink:href="#SVGID_5_"  style="overflow:visible;"/>
	</clipPath>
	<g class="st4">
		<path class="st2" d="M801.7,430.9h-7.8v-7.8h7.8V430.9z M801.7,451.7h-7.8v-7.8h7.8V451.7z M801.7,472.6h-7.8v-7.8h7.8V472.6z
			 M801.7,493.4h-7.8v-7.8h7.8V493.4z M783.4,430.9h-7.8v-7.8h7.8V430.9z M783.4,451.7h-7.8v-7.8h7.8V451.7z M783.4,472.6h-7.8v-7.8
			h7.8V472.6z M783.4,501.2h-7.8v-15.6h7.8V501.2z M765.2,430.9h-7.8v-7.8h7.8V430.9z M765.2,451.7h-7.8v-7.8h7.8V451.7z
			 M765.2,472.6h-7.8v-7.8h7.8V472.6z M765.2,493.4h-7.8v-7.8h7.8V493.4z M810.8,501.2V414h-3.9v-7.8H803V401h-46.9v5.2h-3.9v7.8
			h-3.9v87.2H743v9.1h73v-9.1H810.8z"/>
	</g>
</g>
<g>
	<defs>
		<rect id="SVGID_7_" x="717" y="81.3" width="125" height="125"/>
	</defs>
	<clipPath id="SVGID_8_">
		<use xlink:href="#SVGID_7_"  style="overflow:visible;"/>
	</clipPath>
	<g class="st5">
		<path class="st2" d="M806.9,167.2v-23.7l-31,16.1v-16.1l-31,16.1l-3.5-47.1h-9.2l-3.4,47.1v31h101.6v-23.4H806.9z M751.7,182.6
			h-13.8v-10.3h13.8V182.6z M774.7,182.6h-13.8v-10.3h13.8L774.7,182.6z M797.7,182.6h-13.8v-10.3h13.8L797.7,182.6z"/>
		<path class="st2" d="M757.7,100.1c-0.9,0.9-2.4,0.9-3.4,0c-2-1.9-4.7-2.9-7.4-2.9l-1,0c-6.3-0.2-11.6,4.8-11.8,11.2v1.5h5.3v-0.8
			c-0.1-2.9,2.2-5.2,5-5.4l0.7-0.1c2.2-0.3,4.3,0.4,6,1.9l3.7,3.5c1.9,1.8,4.5,2.6,7.1,2.3c0.2,1.6,0.9,3.1,2.1,4.2
			c3.1,2.8,7.8,2.7,10.8-0.2c0.4-0.4,0.8-0.9,1.2-1.4c3.4,1,7,0.1,9.6-2.3c3.5-3.1,3.8-8.4,0.7-11.9c0,0,0,0,0,0
			c-0.1-0.2-0.3-0.3-0.5-0.5c-3.8-3.4-9.5-3.2-13.2,0.3c-1,0.9-2.4,0.9-3.4,0c-3.2-2.9-8-2.9-11.2,0L757.7,100.1z"/>
	</g>
</g>
<g>
	<defs>
		<rect id="SVGID_9_" x="353.4" y="81.3" width="125" height="125"/>
	</defs>
	<clipPath id="SVGID_10_">
		<use xlink:href="#SVGID_9_"  style="overflow:visible;"/>
	</clipPath>
	<g class="st6">
		<path class="st2" d="M452.3,138.6c0,2.9-2.3,5.2-5.2,5.2c-2.9,0-5.2-2.3-5.2-5.2c0,0,0,0,0,0v-5.2l-2.6-26h10.4l2.6,26V138.6z
			 M431.5,138.6c0,2.9-2.3,5.2-5.1,5.3c-2.9,0-5.2-2.3-5.3-5.1c0,0,0-0.1,0-0.1v-5.2l-1.3-26h10.4l1.3,26V138.6z M410.7,133.3v5.2
			c0,2.9-2.3,5.2-5.1,5.3c-2.9,0-5.2-2.3-5.3-5.1c0,0,0-0.1,0-0.1v-5.2l1.3-26H412L410.7,133.3z M405.5,175h-20.8v-20.8h20.8
			L405.5,175z M379.4,138.6v-5.2l2.6-26h10.4l-2.6,26v5.2c0,2.9-2.3,5.2-5.2,5.2S379.4,141.4,379.4,138.6L379.4,138.6z M457.5,99.5
			h-83.3l-5.2,33.9v5.2c0,2.9,2.3,5.2,5.2,5.2V188h44.3v-33.9h28.6V188h10.4v-44.3c2.9,0,5.2-2.3,5.2-5.2v-5.2L457.5,99.5z"/>
	</g>
</g>
<g>
	<defs>
		<rect id="SVGID_11_" x="539.1" y="393.2" width="125" height="125"/>
	</defs>
	<clipPath id="SVGID_12_">
		<use xlink:href="#SVGID_11_"  style="overflow:visible;"/>
	</clipPath>
	<g class="st7">
		<path class="st2" d="M574.3,479.1c0,5-4.1,9.1-9.1,9.1s-9.1-4.1-9.1-9.1c0-5,4.1-9.1,9.1-9.1c0,0,0,0,0,0
			C570.2,470,574.3,474.1,574.3,479.1z"/>
		<path class="st2" d="M649.8,479.1c0,5-4.1,9.1-9.1,9.1s-9.1-4.1-9.1-9.1c0-5,4.1-9.1,9.1-9.1c0,0,0,0,0,0
			C645.7,470,649.8,474.1,649.8,479.1z"/>
		<path class="st2" d="M544.3,424.4h72.9v31.2h-72.9V424.4z"/>
		<path class="st2" d="M627.7,437.4h7.8c2.3,0,4.4,1.5,4.9,3.8l2.6,9c0,0.1,0.1,0.1,0.1,0.3h-15.5L627.7,437.4z M635.5,432.2h-13
			v46.9h5.2c0-7.2,5.8-13,13-13c7.2,0,13,5.8,13,13c2.9,0,5.2-2.3,5.2-5.2v-13c0-1.6-0.8-3.2-2.1-4.2l-6.9-5.2
			c-0.9-0.7-1.5-1.6-1.8-2.7l-2.6-9C644.2,435.3,640.1,432.3,635.5,432.2L635.5,432.2z"/>
		<path class="st2" d="M617.2,479.1h-39.1c0.1-7.2-5.7-13.1-12.9-13.1c-7.2-0.1-13.1,5.7-13.1,12.9c0,0.1,0,0.2,0,0.2h-7.8v-18.2
			h72.9V479.1z"/>
	</g>
</g>
<g>
	<defs>
		<rect id="SVGID_13_" x="353.4" y="234.4" width="125" height="125"/>
	</defs>
	<clipPath id="SVGID_14_">
		<use xlink:href="#SVGID_13_"  style="overflow:visible;"/>
	</clipPath>
	<g class="st8">
		<path class="st2" d="M405.5,279.9l3.6-3.6c-4-4.1-4-10.7,0-14.8l-3.6-3.6C399.4,263.9,399.4,273.8,405.5,279.9z"/>
		<path class="st2" d="M398.2,287.2l3.6-3.6c-8.1-8.1-8.2-21.2-0.1-29.3l0.1-0.1l-3.6-3.6c-10.1,10-10.3,26.3-0.3,36.5c0,0,0,0,0,0
			C398,287.1,398.1,287.1,398.2,287.2z"/>
		<path class="st2" d="M394.4,291c-12.2-12.3-12.2-32,0-44.3l-3.6-3.6c-14.2,14.2-14.2,37.3,0,51.6c0,0,0,0,0,0l0,0L394.4,291z"/>
		<path class="st2" d="M427.6,279.9c6.1-6.1,6.1-16,0-22.1l-3.6,3.6c1.9,2,3,4.6,3,7.4c0,2.8-1.1,5.4-3,7.4L427.6,279.9z"/>
		<path class="st2" d="M431.2,283.6l3.6,3.6c10.1-10,10.3-26.3,0.3-36.5c0,0,0,0,0,0c-0.1-0.1-0.2-0.2-0.3-0.3l-3.6,3.6
			C439.4,262.2,439.4,275.4,431.2,283.6L431.2,283.6z"/>
		<path class="st2" d="M438.7,291l3.6,3.6c14.2-14.2,14.2-37.3,0-51.6c0,0,0,0,0,0l0,0l-3.6,3.6C450.8,259,450.8,278.7,438.7,291z"
			/>
		<path class="st2" d="M456.2,347.3L456.2,347.3c0-0.2-0.1-0.5-0.2-0.7v-0.1l-37.1-72.3c-0.1-0.2-0.3-0.4-0.4-0.6
			c2.7-1.1,4-4.1,2.9-6.8s-4.1-4-6.8-2.9s-4,4.1-2.9,6.8c0.5,1.3,1.6,2.3,2.9,2.9c-0.1,0.2-0.3,0.3-0.4,0.5l-37.1,72.3v0.1
			c-0.1,0.2-0.2,0.4-0.2,0.7l0,0c0,0.2,0,0.4,0,0.7v0.2c0,0.2,0.1,0.4,0.2,0.6l0,0c0.1,0.1,0.1,0.2,0.2,0.3c0.1,0.1,0.2,0.3,0.3,0.4
			l0,0c0.1,0.1,0.1,0.1,0.2,0.2c0.1,0.1,0.2,0.2,0.4,0.3c0.1,0.1,0.2,0.1,0.3,0.1l0.4,0.1h0.3l0.3,0.2h0.4c0.2,0,0.5-0.1,0.7-0.2
			l36.1-15.9l36,15.8c0.3,0.1,0.7,0.2,1,0.2l0,0c0.2,0,0.4,0,0.6-0.1h0.2c0.2-0.1,0.3-0.1,0.5-0.2l0.1-0.1c0.2-0.1,0.3-0.2,0.5-0.4
			l0,0c0.1-0.1,0.2-0.3,0.3-0.4c0.1-0.1,0.1-0.2,0.2-0.3l0,0c0.1-0.2,0.1-0.4,0.2-0.6v-0.1C456.2,347.8,456.3,347.5,456.2,347.3z
			 M434.1,315.3l-13.2-8.9l6.3-4.3L434.1,315.3z M416.5,281.1l8.4,16.3l-8.6,5.9l-7.8-5.2c-0.2-0.1-0.4-0.2-0.5-0.3L416.5,281.1z
			 M405.6,302.3l6.1,4.1l-12.8,8.8L405.6,302.3z M385.1,342.3l9.2-17.9l15.8,6.9L385.1,342.3z M399.7,321.1l16.7-11.5l17,11.5
			l-16.8,7.4L399.7,321.1z M443.9,340.5l-20.9-9.2l15.8-6.9l9.2,17.9L443.9,340.5z"/>
	</g>
</g>
<g>
	<defs>
		<rect id="SVGID_15_" x="539.1" y="234.4" width="125" height="125"/>
	</defs>
	<clipPath id="SVGID_16_">
		<use xlink:href="#SVGID_15_"  style="overflow:visible;"/>
	</clipPath>
	<g class="st9">
		<path class="st2" d="M584.2,318.2l-14.9-14.9l14.9-14.9l3.7,3.7l-11.2,11.2l11.2,11.2L584.2,318.2z"/>
		<path class="st2" d="M619.1,318.2l-3.7-3.7l11.2-11.2l-11.2-11.2l3.7-3.7l14.9,14.9L619.1,318.2z"/>
		<path class="st2" d="M592.9,318.1l12.5-30.1l4.8,2l-12.5,30.1L592.9,318.1z"/>
		<path class="st2" d="M549.5,256.5v80.7h104.2v-80.7H549.5z M639.4,264.3c1.4,0,2.6,1.2,2.6,2.6s-1.2,2.6-2.6,2.6
			c-1.4,0-2.6-1.2-2.6-2.6c0,0,0,0,0,0C636.8,265.5,637.9,264.3,639.4,264.3C639.4,264.3,639.4,264.3,639.4,264.3L639.4,264.3z
			 M630.3,264.3c1.4,0,2.6,1.2,2.6,2.6s-1.2,2.6-2.6,2.6c-1.4,0-2.6-1.2-2.6-2.6C627.7,265.5,628.8,264.3,630.3,264.3
			C630.3,264.3,630.3,264.3,630.3,264.3L630.3,264.3z M621.2,264.3c1.4,0,2.6,1.2,2.6,2.6s-1.2,2.6-2.6,2.6c-1.4,0-2.6-1.2-2.6-2.6
			c0,0,0,0,0,0C618.6,265.5,619.7,264.3,621.2,264.3C621.2,264.3,621.2,264.3,621.2,264.3L621.2,264.3z M645.9,329.4h-88.5v-52.1
			h88.5V329.4z"/>
	</g>
</g>
<g>
	<defs>
		<rect id="SVGID_17_" x="717" y="234.4" width="125" height="125"/>
	</defs>
	<clipPath id="SVGID_18_">
		<use xlink:href="#SVGID_17_"  style="overflow:visible;"/>
	</clipPath>
	<g class="st10">
		<path class="st2" d="M835,281.6l-6.8-2.5V265l6.8-2.9l-45.8-16.9l-55.7,19.5c-5.3,2.6-5.5,9.8-5.5,15.6c0,1.9,0.2,3.8,0.7,5.7
			c-4.4,2.9-4.6,9.5-4.6,15.1c0,4.6,1,8.7,3.9,11.3c-0.7,2.2-0.3,4.9-0.3,8.2c0,5.9,1.6,11.2,6.8,13l36.2,15l64.1-26.6l-6.8-2.5
			v-14.3l6.8-2.9l-10.4-3.9v-12.5L835,281.6z M735,273.8l36.2,14.2l52-21v11.2l-52,21.6L735,285.5V273.8z M822.9,318.7l-52,21.5
			l-36.3-14.3v-10.2L767,329l56-22.1L822.9,318.7z M819.2,299.2l-52,21.5l-36.2-14.3v-11.7l37.2,14.8l51-21.4v11.1H819.2z"/>
	</g>
</g>
</svg>
