<?xml version="1.0" encoding="utf-8"?>
<!-- Generator: Adobe Illustrator 25.1.0, SVG Export Plug-In . SVG Version: 6.00 Build 0)  -->
<svg version="1.1" id="Layer_1" xmlns="http://www.w3.org/2000/svg" xmlns:xlink="http://www.w3.org/1999/xlink" x="0px" y="0px"
	 viewBox="0 0 122.9 122.9" style="enable-background:new 0 0 122.9 122.9;" xml:space="preserve">
<style type="text/css">
	.st0{fill-rule:evenodd;clip-rule:evenodd;fill:#FF6600;}
	.st1{fill-rule:evenodd;clip-rule:evenodd;fill:#FFFFFF;}
</style>
<path class="st0" d="M61.4,0c33.9,0,61.4,27.5,61.4,61.4s-27.5,61.4-61.4,61.4S0,95.4,0,61.4c0,0,0,0,0,0C0,27.5,27.5,0,61.4,0z"/>
<path class="st1" d="M77,67.6c-0.8-0.4-4.5-2.2-5.2-2.5s-1.2-0.4-1.7,0.4s-2,2.5-2.4,3s-0.9,0.6-1.7,0.2c-2.3-0.9-4.3-2.2-6.1-3.8
	c-1.7-1.5-3.1-3.3-4.3-5.3c-0.3-0.5-0.2-1.2,0.3-1.5c0,0,0,0,0.1,0c0.3-0.3,0.8-0.9,1.2-1.3c0.3-0.4,0.6-0.8,0.8-1.3
	C58,55,58,54.4,57.8,54c-0.2-0.4-1.7-4.1-2.3-5.7s-1.3-1.3-1.7-1.3s-1,0-1.5,0c-0.8,0-1.5,0.4-2,1c-1.7,1.7-2.7,4-2.7,6.4
	c0,3.8,2.7,7.4,3.1,7.9s5.3,8.2,13,11.5c1.4,0.6,2.9,1.2,4.4,1.6c1.6,0.5,3.2,0.6,4.8,0.3c1.5-0.2,4.5-1.8,5.2-3.6
	c0.5-1.1,0.7-2.4,0.4-3.6C78.3,68.1,77.8,68,77,67.6L77,67.6z M84.7,39.6c-12-11.9-31.3-11.9-43.3,0c-9.8,9.8-11.8,24.9-4.9,36.9
	l-4.3,15.8l16.2-4.2c4.5,2.4,9.5,3.7,14.6,3.7l0,0c16.9,0,30.6-13.7,30.6-30.6C93.7,53.1,90.4,45.3,84.7,39.6L84.7,39.6z M63.1,86.6
	c-4.6,0-9.1-1.2-13-3.5l-0.9-0.6L39.6,85l2.6-9.4l-0.6-1c-7.4-11.9-3.8-27.6,8.2-35s27.6-3.8,35,8.2s3.8,27.6-8.2,35
	C72.5,85.3,67.8,86.6,63.1,86.6L63.1,86.6z"/>
</svg>
